<?xml version="1.0" standalone="no"?>
<!DOCTYPE svg PUBLIC "-//W3C//DTD SVG 20010904//EN"
 "http://www.w3.org/TR/2001/REC-SVG-20010904/DTD/svg10.dtd">
<svg version="1.0" xmlns="http://www.w3.org/2000/svg"
 width="700.000000pt" height="700.000000pt" viewBox="0 0 700.000000 700.000000"
 preserveAspectRatio="xMidYMid meet">
<metadata>
Created by potrace 1.14, written by Peter Selinger 2001-2017
</metadata>
<g transform="translate(0.000000,700.000000) scale(0.100000,-0.100000)"
fill="#000000" stroke="none">
<path d="M1175 6993 c-74 -9 -235 -47 -299 -70 -402 -143 -725 -495 -831 -905
-45 -171 -44 -102 -44 -2523 0 -2227 1 -2303 19 -2400 57 -294 187 -536 393
-731 159 -151 381 -275 572 -321 69 -16 107 -24 160 -30 81 -11 4632 -10 4718
0 202 24 433 120 610 253 220 165 400 424 471 679 59 209 55 43 53 2575 -1
1279 -5 2335 -9 2346 -3 12 -9 39 -12 60 -48 298 -246 615 -505 809 -98 74
-267 164 -356 191 -105 31 -152 44 -178 48 -18 3 -43 9 -57 13 -25 8 -4648 14
-4705 6z"/>
</g>
</svg>
